<?xml version="1.0" standalone="no"?><!DOCTYPE svg PUBLIC "-//W3C//DTD SVG 1.1//EN" "http://www.w3.org/Graphics/SVG/1.1/DTD/svg11.dtd"><svg t="1660916540837" class="icon" viewBox="0 0 1071 1024" version="1.1" xmlns="http://www.w3.org/2000/svg" p-id="2052" xmlns:xlink="http://www.w3.org/1999/xlink" width="209.1796875" height="200"><defs><style type="text/css">@font-face { font-family: feedback-iconfont; src: url("//at.alicdn.com/t/font_1031158_u69w8yhxdu.woff2?t=1630033759944") format("woff2"), url("//at.alicdn.com/t/font_1031158_u69w8yhxdu.woff?t=1630033759944") format("woff"), url("//at.alicdn.com/t/font_1031158_u69w8yhxdu.ttf?t=1630033759944") format("truetype"); }
</style></defs><path d="M520.97996011 359.72382223m57.9319641 0l216.23961884 0q57.93196412 0 57.93196411 57.9319641l0 327.04008459q0 57.93196412-57.93196411 57.93196412l-216.23961884 0q-57.93196412 0-57.9319641-57.93196412l0-327.04008459q0-57.93196412 57.9319641-57.9319641Z" fill="#FFFFFF" p-id="2053"></path><path d="M795.15154305 810.07410282H578.9119242a65.52715697 65.52715697 0 0 1-65.37823189-65.37823191v-327.63578604a65.52715697 65.52715697 0 0 1 65.37823189-65.52715756H795.15154305a65.52715697 65.52715697 0 0 1 65.3782319 65.52715756v327.63578604A65.52715697 65.52715697 0 0 1 795.15154305 810.07410282zM578.9119242 367.17008999a50.6346214 50.6346214 0 0 0-50.48569632 50.63462143v327.63578604a50.48569634 50.48569634 0 0 0 50.48569632 50.48569634H795.15154305a50.48569634 50.48569634 0 0 0 50.48569574-50.48569634v-327.63578605a50.6346214 50.6346214 0 0 0-50.48569574-50.6346214z" fill="#333333" p-id="2054"></path><path d="M795.15154305 810.07410282H578.9119242a65.52715697 65.52715697 0 0 1-65.37823189-65.37823191v-327.63578604a65.52715697 65.52715697 0 0 1 65.37823189-65.52715756H795.15154305a65.52715697 65.52715697 0 0 1 65.3782319 65.52715756v327.63578604A65.52715697 65.52715697 0 0 1 795.15154305 810.07410282zM578.9119242 367.17008999a50.6346214 50.6346214 0 0 0-50.48569632 50.63462143v327.63578604a50.48569634 50.48569634 0 0 0 50.48569632 50.48569634H795.15154305a50.48569634 50.48569634 0 0 0 50.48569574-50.48569634v-327.63578605a50.6346214 50.6346214 0 0 0-50.48569574-50.6346214z" fill="#333333" p-id="2055"></path><path d="M795.15154305 817.07359479H578.9119242a72.82449968 72.82449968 0 0 1-72.82449967-72.82450028v-327.63578605a72.97342534 72.97342534 0 0 1 72.82449967-72.97342474H795.15154305a72.97342534 72.97342534 0 0 1 72.82449967 72.97342474v327.63578605A72.82449968 72.82449968 0 0 1 795.15154305 817.07359479z m-274.17158294-72.37772388A57.93196412 57.93196412 0 0 0 578.9119242 802.18105863H795.15154305a58.08088919 58.08088919 0 0 0 57.93196411-57.93196413A58.08088919 58.08088919 0 0 1 795.15154305 802.18105863H578.9119242a57.93196412 57.93196412 0 0 1-57.93196409-57.48518771z m57.93196409-370.07951312a43.18835363 43.18835363 0 0 0-43.03942854 43.18835362v327.63578605A43.18835363 43.18835363 0 0 0 578.9119242 787.28852308H795.15154305a43.18835363 43.18835363 0 0 0 43.03942796-43.03942857v-327.63578605A43.18835363 43.18835363 0 0 0 795.15154305 374.61635779z" fill="#333333" p-id="2056"></path><path d="M597.82544441 798.90470113v-92.482647a26.06193725 26.06193725 0 0 1 26.06193723-26.06193784H705.79632845a26.06193725 26.06193725 0 0 1 26.06193784 26.06193784v92.482647" fill="#FFFFFF" p-id="2057"></path><path d="M746.30402546 798.90470113h-29.78507113v-92.482647a11.31832735 11.31832735 0 0 0-11.16940168-11.16940168H623.88738164a11.31832735 11.31832735 0 0 0-11.16940167 11.16940168v92.482647h-29.78507112v-92.482647a40.9544734 40.9544734 0 0 1 40.95447279-40.9544734H705.79632845a40.9544734 40.9544734 0 0 1 40.95447342 40.9544734z" fill="#333333" p-id="2058"></path><path d="M244.12772051 221.37216496m57.93196412 0l271.63985201 0q57.93196412 0 57.93196412 57.93196412l0 465.39174183q0 57.93196412-57.93196411 57.93196413l-271.63985202 0q-57.93196412 0-57.93196412-57.93196413l0-465.39174183q0-57.93196412 57.93196412-57.93196412Z" fill="#FFFFFF" p-id="2059"></path><path d="M573.69953664 810.07410282H302.05968463A65.52715697 65.52715697 0 0 1 236.68145274 744.69587092V279.30412908A65.52715697 65.52715697 0 0 1 302.05968463 213.92589718h271.63985201a65.52715697 65.52715697 0 0 1 65.37823191 65.37823191v465.39174183a65.52715697 65.52715697 0 0 1-65.3782319 65.3782319zM302.05968463 228.81843275A50.48569634 50.48569634 0 0 0 251.5739883 279.30412908v465.39174183a50.48569634 50.48569634 0 0 0 50.48569633 50.48569635h271.63985201a50.48569634 50.48569634 0 0 0 50.48569573-50.48569635V279.30412908a50.48569634 50.48569634 0 0 0-50.48569573-50.48569634z" fill="#333333" p-id="2060"></path><path d="M573.69953664 810.07410282H302.05968463A65.52715697 65.52715697 0 0 1 236.68145274 744.69587092V279.30412908A65.52715697 65.52715697 0 0 1 302.05968463 213.92589718h271.63985201a65.52715697 65.52715697 0 0 1 65.37823191 65.37823191v465.39174183a65.52715697 65.52715697 0 0 1-65.3782319 65.3782319zM302.05968463 228.81843275A50.48569634 50.48569634 0 0 0 251.5739883 279.30412908v465.39174183a50.48569634 50.48569634 0 0 0 50.48569633 50.48569635h271.63985201a50.48569634 50.48569634 0 0 0 50.48569573-50.48569635V279.30412908a50.48569634 50.48569634 0 0 0-50.48569573-50.48569634z" fill="#333333" p-id="2061"></path><path d="M573.69953664 817.07359479H302.05968463A72.97342534 72.97342534 0 0 1 229.23518495 744.69587092V279.30412908A72.97342534 72.97342534 0 0 1 302.05968463 206.4796294h271.63985201A72.97342534 72.97342534 0 0 1 646.22618558 279.30412908v465.39174183A72.82449968 72.82449968 0 0 1 573.69953664 817.07359479zM244.12772051 744.69587092A58.08088919 58.08088919 0 0 0 302.05968463 802.18105863h271.63985201A58.08088919 58.08088919 0 0 0 631.33365004 744.69587092 58.08088919 58.08088919 0 0 1 573.69953664 802.18105863H302.05968463A58.08088919 58.08088919 0 0 1 244.12772051 744.69587092zM302.05968463 236.26470113A43.18835363 43.18835363 0 0 0 259.02025668 279.30412908v465.39174183A43.18835363 43.18835363 0 0 0 302.05968463 787.28852308h271.63985201A43.18835363 43.18835363 0 0 0 616.44111387 744.69587092V279.30412908A43.18835363 43.18835363 0 0 0 573.69953664 236.26470113z" fill="#333333" p-id="2062"></path><path d="M383.37292998 342.00170437v257.04516718" fill="#FFFFFF" p-id="2063"></path><path d="M368.4803938 342.00170437h29.78507175v257.04516718h-29.78507175z" fill="#333333" p-id="2064"></path><path d="M494.17339571 342.00170437v257.04516718" fill="#FFFFFF" p-id="2065"></path><path d="M479.28086015 342.00170437h29.78507114v257.04516718h-29.78507114z" fill="#333333" p-id="2066"></path><path d="M628.35514267 456.67422966h119.14028572" fill="#FFFFFF" p-id="2067"></path><path d="M628.35514267 441.78169409h119.14028572v29.78507113h-119.14028571z" fill="#333333" p-id="2068"></path><path d="M628.35514267 565.24081519h119.14028572" fill="#FFFFFF" p-id="2069"></path><path d="M628.35514267 550.34827963h119.14028572v29.78507112h-119.14028571zM519.63963148 798.90470113h-29.78507113v-92.482647a11.31832735 11.31832735 0 0 0-11.16940167-11.16940168h-81.46217041a11.16940169 11.16940169 0 0 0-11.16940226 11.16940168v92.482647h-29.78507115v-92.482647a40.9544734 40.9544734 0 0 1 40.95447342-40.9544734h81.4621704a40.9544734 40.9544734 0 0 1 40.9544728 40.9544734z" fill="#333333" p-id="2070"></path></svg>