<?xml version="1.0" standalone="no"?><!DOCTYPE svg PUBLIC "-//W3C//DTD SVG 1.1//EN" "http://www.w3.org/Graphics/SVG/1.1/DTD/svg11.dtd"><svg t="1660917900710" class="icon" viewBox="0 0 1024 1024" version="1.1" xmlns="http://www.w3.org/2000/svg" p-id="1180" xmlns:xlink="http://www.w3.org/1999/xlink" width="200" height="200"><defs><style type="text/css">@font-face { font-family: feedback-iconfont; src: url("//at.alicdn.com/t/font_1031158_u69w8yhxdu.woff2?t=1630033759944") format("woff2"), url("//at.alicdn.com/t/font_1031158_u69w8yhxdu.woff?t=1630033759944") format("woff"), url("//at.alicdn.com/t/font_1031158_u69w8yhxdu.ttf?t=1630033759944") format("truetype"); }
</style></defs><path d="M567.23363335 677.70089876h110.46726541v55.23363336h-110.46726541v55.23363206h-55.23363335v-55.23363206h-110.46726541v-55.23363336h110.46726541v-55.23363335h-110.46726541v-55.23363206h115.99062913l-127.03735658-127.03735658 38.66354347-38.66354218 110.46726541 110.46726541 110.46726671-110.46726541 38.66354219 38.66354218-127.03735529 127.03735658H677.70089876v55.23363206h-110.46726541v55.23363335z m-11.04672744-110.46726541zM677.70089876 180.59820247v55.23363335h-276.16816417V152.98138643c0-11.04672615 0-16.57008987 5.52336242-27.61681731H235.83183582v828.50449382h607.56996171V125.36456912h-171.22426249c5.52336372 11.04672615 5.52336372 16.57008987 5.52336372 27.61681731V180.59820247z m-55.23363335 0v-27.61681604c0-44.18690591-38.66354348-82.85044939-82.85044939-82.85044937S456.76636665 108.79447924 456.76636665 152.98138643V180.59820247h165.70089876z m-193.3177148-110.46726541c27.61681602-33.14017975 66.2803595-55.23363335 110.46726541-55.23363336s82.85044939 22.0934536 110.46726671 55.23363336H898.63543088v938.97175924H180.59820247V70.13093706h248.55134814z" fill="#444444" p-id="1181"></path></svg>