<?xml version="1.0" standalone="no"?><!DOCTYPE svg PUBLIC "-//W3C//DTD SVG 1.1//EN" "http://www.w3.org/Graphics/SVG/1.1/DTD/svg11.dtd"><svg t="1660917923949" class="icon" viewBox="0 0 1071 1024" version="1.1" xmlns="http://www.w3.org/2000/svg" p-id="1378" xmlns:xlink="http://www.w3.org/1999/xlink" width="209.1796875" height="200"><defs><style type="text/css">@font-face { font-family: feedback-iconfont; src: url("//at.alicdn.com/t/font_1031158_u69w8yhxdu.woff2?t=1630033759944") format("woff2"), url("//at.alicdn.com/t/font_1031158_u69w8yhxdu.woff?t=1630033759944") format("woff"), url("//at.alicdn.com/t/font_1031158_u69w8yhxdu.ttf?t=1630033759944") format("truetype"); }
</style></defs><path d="M525.22655521 287.71289317m85.32780906 0l318.49865947 0q85.32780908 0 85.32780906 85.32780907l0 481.69631954q0 85.32780908-85.32780906 85.32780908l-318.49865947 0q-85.32780908 0-85.32780906-85.32780908l0-481.69631954q0-85.32780908 85.32780906-85.32780907Z" fill="#FFFFFF" p-id="1379"></path><path d="M929.05302374 951.03241542H610.55436426a96.51474491 96.51474491 0 0 1-96.29539366-96.29539365v-482.57372636a96.51474491 96.51474491 0 0 1 96.29539366-96.5147458H929.05302374a96.51474491 96.51474491 0 0 1 96.29539365 96.5147458v482.57372636A96.51474491 96.51474491 0 0 1 929.05302374 951.03241542zM610.55436426 298.68047772a74.57957578 74.57957578 0 0 0-74.36022449 74.57957582v482.57372634a74.36022452 74.36022452 0 0 0 74.36022449 74.36022453H929.05302374a74.36022452 74.36022452 0 0 0 74.36022363-74.36022453v-482.57372637a74.57957578 74.57957578 0 0 0-74.36022363-74.57957576z" fill="#333333" p-id="1380"></path><path d="M929.05302374 951.03241542H610.55436426a96.51474491 96.51474491 0 0 1-96.29539366-96.29539365v-482.57372636a96.51474491 96.51474491 0 0 1 96.29539366-96.5147458H929.05302374a96.51474491 96.51474491 0 0 1 96.29539365 96.5147458v482.57372636A96.51474491 96.51474491 0 0 1 929.05302374 951.03241542zM610.55436426 298.68047772a74.57957578 74.57957578 0 0 0-74.36022449 74.57957582v482.57372634a74.36022452 74.36022452 0 0 0 74.36022449 74.36022453H929.05302374a74.36022452 74.36022452 0 0 0 74.36022363-74.36022453v-482.57372637a74.57957578 74.57957578 0 0 0-74.36022363-74.57957576z" fill="#333333" p-id="1381"></path><path d="M929.05302374 961.34194531H610.55436426a107.26297822 107.26297822 0 0 1-107.26297821-107.26297909v-482.57372639a107.48233035 107.48233035 0 0 1 107.26297821-107.48232947H929.05302374a107.48233035 107.48233035 0 0 1 107.2629782 107.48232947v482.57372639A107.26297822 107.26297822 0 0 1 929.05302374 961.34194531z m-403.82646853-106.60492354A85.32780908 85.32780908 0 0 0 610.55436426 939.40677529H929.05302374a85.54716035 85.54716035 0 0 0 85.32780906-85.32780909A85.54716035 85.54716035 0 0 1 929.05302374 939.40677529H610.55436426a85.32780908 85.32780908 0 0 1-85.32780905-84.66975351z m85.32780905-545.08895947a63.61199122 63.61199122 0 0 0-63.39263995 63.61199121v482.57372637A63.61199122 63.61199122 0 0 0 610.55436426 917.47160617H929.05302374a63.61199122 63.61199122 0 0 0 63.39263905-63.39263995v-482.57372639A63.61199122 63.61199122 0 0 0 929.05302374 309.6480623z" fill="#333333" p-id="1382"></path><path d="M638.4120291 934.58103857v-136.21740204a38.38654601 38.38654601 0 0 1 38.386546-38.38654688H797.44200715a38.38654601 38.38654601 0 0 1 38.38654684 38.38654688v136.21740204" fill="#FFFFFF" p-id="1383"></path><path d="M857.10566758 934.58103857h-43.87033826v-136.21740204a16.67072902 16.67072902 0 0 0-16.45137688-16.45137685H676.7985751a16.67072902 16.67072902 0 0 0-16.45137685 16.45137685v136.21740204h-43.87033827v-136.21740204a60.32171602 60.32171602 0 0 1 60.32171512-60.32171601H797.44200715a60.32171602 60.32171602 0 0 1 60.32171602 60.32171601z" fill="#333333" p-id="1384"></path><path d="M117.45175585 83.93516914m85.3278091 0l400.09748993 0q85.32780908 0 85.32780908 85.32780908l0 685.47404355q0 85.32780908-85.32780906 85.32780909l-400.09748995 0q-85.32780908 0-85.3278091-85.32780909l0-685.47404355q0-85.32780908 85.3278091-85.32780908Z" fill="#FFFFFF" p-id="1385"></path><path d="M602.87705488 951.03241542H202.77956495A96.51474491 96.51474491 0 0 1 106.4841713 854.73702178V169.26297822A96.51474491 96.51474491 0 0 1 202.77956495 72.96758458h400.09748993a96.51474491 96.51474491 0 0 1 96.29539367 96.29539365v685.47404355a96.51474491 96.51474491 0 0 1-96.29539365 96.29539364zM202.77956495 94.90275372A74.36022452 74.36022452 0 0 0 128.41934045 169.26297822v685.47404355a74.36022452 74.36022452 0 0 0 74.3602245 74.36022453h400.09748993a74.36022452 74.36022452 0 0 0 74.36022363-74.36022453V169.26297822a74.36022452 74.36022452 0 0 0-74.36022363-74.36022452z" fill="#333333" p-id="1386"></path><path d="M602.87705488 951.03241542H202.77956495A96.51474491 96.51474491 0 0 1 106.4841713 854.73702178V169.26297822A96.51474491 96.51474491 0 0 1 202.77956495 72.96758458h400.09748993a96.51474491 96.51474491 0 0 1 96.29539367 96.29539365v685.47404355a96.51474491 96.51474491 0 0 1-96.29539365 96.29539364zM202.77956495 94.90275372A74.36022452 74.36022452 0 0 0 128.41934045 169.26297822v685.47404355a74.36022452 74.36022452 0 0 0 74.3602245 74.36022453h400.09748993a74.36022452 74.36022452 0 0 0 74.36022363-74.36022453V169.26297822a74.36022452 74.36022452 0 0 0-74.36022363-74.36022452z" fill="#333333" p-id="1387"></path><path d="M602.87705488 961.34194531H202.77956495A107.48233035 107.48233035 0 0 1 95.51658673 854.73702178V169.26297822A107.48233035 107.48233035 0 0 1 202.77956495 62h400.09748993A107.48233035 107.48233035 0 0 1 709.70132967 169.26297822v685.47404355A107.26297822 107.26297822 0 0 1 602.87705488 961.34194531zM117.45175585 854.73702178A85.54716035 85.54716035 0 0 0 202.77956495 939.40677529h400.09748993A85.54716035 85.54716035 0 0 0 687.76616058 854.73702178 85.54716035 85.54716035 0 0 1 602.87705488 939.40677529H202.77956495A85.54716035 85.54716035 0 0 1 117.45175585 854.73702178zM202.77956495 105.87033915A63.61199122 63.61199122 0 0 0 139.38692589 169.26297822v685.47404355A63.61199122 63.61199122 0 0 0 202.77956495 917.47160617h400.09748993A63.61199122 63.61199122 0 0 0 665.83099054 854.73702178V169.26297822A63.61199122 63.61199122 0 0 0 602.87705488 105.87033915z" fill="#333333" p-id="1388"></path><path d="M322.54559014 261.61004111v378.60102421" fill="#FFFFFF" p-id="1389"></path><path d="M300.61042011 261.61004111h43.87033918v378.60102421h-43.87033918z" fill="#333333" p-id="1390"></path><path d="M485.7432502 261.61004111v378.60102421" fill="#FFFFFF" p-id="1391"></path><path d="M463.80808107 261.61004111h43.87033827v378.60102421h-43.87033827z" fill="#333333" p-id="1392"></path><path d="M683.37912637 430.5108456h175.48135487" fill="#FFFFFF" p-id="1393"></path><path d="M683.37912637 408.57567646h175.48135487v43.87033827h-175.48135486z" fill="#333333" p-id="1394"></path><path d="M683.37912637 590.41823046h175.48135487" fill="#FFFFFF" p-id="1395"></path><path d="M683.37912637 568.48306135h175.48135487v43.87033826h-175.48135486zM523.25238937 934.58103857h-43.87033829v-136.21740204a16.67072902 16.67072902 0 0 0-16.45137685-16.45137685h-119.98537646a16.45137686 16.45137686 0 0 0-16.45137773 16.45137685v136.21740204h-43.8703383v-136.21740204a60.32171602 60.32171602 0 0 1 60.32171604-60.32171601h119.98537645a60.32171602 60.32171602 0 0 1 60.32171514 60.32171601z" fill="#333333" p-id="1396"></path></svg>