<?xml version="1.0" standalone="no"?><!DOCTYPE svg PUBLIC "-//W3C//DTD SVG 1.1//EN" "http://www.w3.org/Graphics/SVG/1.1/DTD/svg11.dtd"><svg t="1660918153604" class="icon" viewBox="0 0 1024 1024" version="1.1" xmlns="http://www.w3.org/2000/svg" p-id="1257" xmlns:xlink="http://www.w3.org/1999/xlink" width="200" height="200"><defs><style type="text/css">@font-face { font-family: feedback-iconfont; src: url("//at.alicdn.com/t/font_1031158_u69w8yhxdu.woff2?t=1630033759944") format("woff2"), url("//at.alicdn.com/t/font_1031158_u69w8yhxdu.woff?t=1630033759944") format("woff"), url("//at.alicdn.com/t/font_1031158_u69w8yhxdu.ttf?t=1630033759944") format("truetype"); }
</style></defs><path d="M997.59181013 549.66094293L556.90213013 113.7117632c-15.59682347-15.42654613-40.96717653-15.42654613-56.55526826 0L59.66264 549.66094293c-7.8502592 7.76184533-7.91793387 20.4246464-0.15172267 28.2749056 7.77166933 7.8502592 19.46082773 7.92775787 27.31108694 0.15608854l93.7468544-93.63442774L180.56885973 853.8126496c0 20.67897173 20.75210347 32.5220352 46.67476907 32.5220352l179.95999253 0c21.73884373 0 33.14857173-10.50485227 33.14857174-32.5220352L440.35219307 634.10471573c9.82373973-1.688592 5.8909696-7.55445547 6.8427808-7.55445546l154.93674453 0c0.16591253 9.82373973-1.3251136 5.19130027-1.3251136 6.54806826L600.8066048 853.8126496c0 20.67897173 20.42246293 32.5220352 46.34403733 32.5220352l179.95999254 0c21.73884373 0 33.47821227-10.50485227 33.47821226-32.5220352L860.58884693 472.13744853l107.98909334 105.95448854c3.90002453 3.85636373 9.42424107 5.77963307 14.50638826 5.77963306 5.14982293 0 10.52668267-1.98221227 14.4365312-5.9357216C1005.28925547 570.08558827 1005.44206933 557.42278827 997.59181013 549.66094293zM820.20345387 845.94710933L647.15173333 845.94710933c-1.81084267 0 2.77466027 3.3149664-7.0490784 3.00278934L640.10265493 633.09941973c0-25.62904533-12.18907733-46.93455253-32.94227306-46.93455253L447.19497387 586.1648672c-22.1579904 0-47.22926507 25.3769024-47.22926507 46.93455253l0 212.8487808L227.2436288 845.94820053c-1.81084267 0 3.53545493 3.3149664-6.2882848 3.00278934L220.955344 444.92350613l305.97019093-302.78184106 293.27791894 290.43340053L820.20345387 845.94710933z" p-id="1258"></path></svg>