<?xml version="1.0" standalone="no"?><!DOCTYPE svg PUBLIC "-//W3C//DTD SVG 1.1//EN" "http://www.w3.org/Graphics/SVG/1.1/DTD/svg11.dtd"><svg t="1660916493002" class="icon" viewBox="0 0 1024 1024" version="1.1" xmlns="http://www.w3.org/2000/svg" p-id="1212" xmlns:xlink="http://www.w3.org/1999/xlink" width="200" height="200"><defs><style type="text/css">@font-face { font-family: feedback-iconfont; src: url("//at.alicdn.com/t/font_1031158_u69w8yhxdu.woff2?t=1630033759944") format("woff2"), url("//at.alicdn.com/t/font_1031158_u69w8yhxdu.woff?t=1630033759944") format("woff"), url("//at.alicdn.com/t/font_1031158_u69w8yhxdu.ttf?t=1630033759944") format("truetype"); }
</style></defs><path d="M800 864 288 864c-11.2 0-21.6-5.888-27.392-15.424-5.792-9.6-6.144-21.536-0.928-31.424l10.272-19.456C294.56 751.2 320 703.136 320 679.616c0-8.608 0-12.512-14.528-12.512-13.6 0-27.104 5.376-30.976 8.16-17.088 12.064-41.76 19.008-67.712 19.008-26.432 0-50.016-7.072-66.496-19.904C110.496 651.072 96 602.944 96 527.232c0-90.464 51.2-122.656 99.104-122.656 16.96 0 35.072 4.032 52.352 11.712 40.064 17.76 56.448 17.12 61.44 16.384 0.032-0.448 0.064-0.96 0.064-1.568 0.48-60.928-20.384-202.528-20.608-203.936-1.504-10.304 2.048-20.672 9.6-27.872C304.832 192.736 344.448 160 448 160c48.8 0 73.12 19.84 84.896 36.448 13.76 19.36 17.216 44.448 9.312 67.072-18.848 53.888-21.056 95.104-6.144 116.096 11.36 16.032 35.584 24.16 71.936 24.16 10.4 0 32.608-9.728 49.312-31.392 15.328-19.84 30.464-55.264 15.744-111.328-5.28-20.096-0.928-40.544 12.224-57.6C706.592 175.84 748.416 160 800 160c29.632 0 79.2 0 119.392 49.312 4.64 5.696 7.168 12.8 7.2 20.128L928 740.48C928 808.64 870.592 864 800 864zM341.024 800 800 800c34.688 0 64-27.232 64-59.424L862.624 241.984C843.648 224 823.232 224 800 224c-45.28 0-64.352 16.256-65.12 20.416 16.704 63.808 7.136 122.976-26.912 167.104-26.368 34.208-65.632 56.32-99.968 56.32-58.272 0-100.064-17.216-124.128-51.136-28-39.488-28.704-98.144-2.048-174.304 0.288-0.832 1.6-5.12-1.088-8.896C479.136 231.264 472.096 224 448 224c-48.832 0-78.08 8.576-93.312 15.104 6.016 43.296 18.656 141.088 18.24 192.512-0.288 39.648-26.976 65.312-68 65.312-22.592 0-49.888-7.232-83.456-22.112-9.184-4.064-18.304-6.208-26.4-6.208C171.808 468.576 160 488.288 160 527.232c0 79.008 17.696 95.136 19.712 96.704 4.032 3.168 13.984 6.336 27.072 6.336 14.144 0 25.632-3.616 30.72-7.264 16.8-11.904 44.128-19.904 67.968-19.904 47.68 0 78.528 30.016 78.528 76.512C384 712.672 365.28 753.376 341.024 800z" p-id="1213"></path></svg>