<?xml version="1.0" standalone="no"?><!DOCTYPE svg PUBLIC "-//W3C//DTD SVG 1.1//EN" "http://www.w3.org/Graphics/SVG/1.1/DTD/svg11.dtd"><svg t="1660916523880" class="icon" viewBox="0 0 1024 1024" version="1.1" xmlns="http://www.w3.org/2000/svg" p-id="1629" xmlns:xlink="http://www.w3.org/1999/xlink" width="200" height="200"><defs><style type="text/css">@font-face { font-family: feedback-iconfont; src: url("//at.alicdn.com/t/font_1031158_u69w8yhxdu.woff2?t=1630033759944") format("woff2"), url("//at.alicdn.com/t/font_1031158_u69w8yhxdu.woff?t=1630033759944") format("woff"), url("//at.alicdn.com/t/font_1031158_u69w8yhxdu.ttf?t=1630033759944") format("truetype"); }
</style></defs><path d="M896 112a16 16 0 0 1 16 16v768a16 16 0 0 1-16 16H128a16 16 0 0 1-16-16V128a16 16 0 0 1 16-16z m0-48H128a64 64 0 0 0-64 64v768a64 64 0 0 0 64 64h768a64 64 0 0 0 64-64V128a64 64 0 0 0-64-64z" fill="" p-id="1630"></path><path d="M602.88 208h1.12l-23.04 23.04a44.8 44.8 0 0 0 0 64l36.48 36.64a45.44 45.44 0 0 0 64 0L704 308.16a56 56 0 0 1-14.88 40.32 54.4 54.4 0 0 1-39.36 14.88 78.4 78.4 0 0 1-25.76-4.32 29.92 29.92 0 0 0-9.92-1.6 32 32 0 0 0-22.56 9.44l-112 112a32 32 0 0 0-7.84 32 64 64 0 0 1-10.72 65.12 53.44 53.44 0 0 1-39.2 14.88h-0.96l23.04-23.04a45.6 45.6 0 0 0 0-64l-37.28-35.04a44.8 44.8 0 0 0-64 0L320 491.84a54.56 54.56 0 0 1 14.88-40.32 54.08 54.08 0 0 1 39.2-14.88 80 80 0 0 1 25.92 4.32 29.92 29.92 0 0 0 9.92 1.6 32 32 0 0 0 22.08-9.28l112-112a32 32 0 0 0 7.68-32 63.04 63.04 0 0 1 10.56-65.28 53.76 53.76 0 0 1 40.64-16z m0-32a86.56 86.56 0 0 0-61.92 24.32 94.4 94.4 0 0 0-18.4 97.6l-112 112a118.4 118.4 0 0 0-35.84-5.92 85.44 85.44 0 0 0-61.76 24.32 96 96 0 0 0-16 105.92 13.12 13.12 0 0 0 9.44 7.84h2.72a13.12 13.12 0 0 0 9.12-3.84l48-48a12.96 12.96 0 0 1 18.4 0L420.48 528a12.8 12.8 0 0 1 0 18.24l-48 48a12.16 12.16 0 0 0-3.52 11.68 12.8 12.8 0 0 0 7.84 9.44 117.76 117.76 0 0 0 43.84 8.8 86.56 86.56 0 0 0 61.92-24.32 94.4 94.4 0 0 0 18.4-97.6l112-112a112 112 0 0 0 35.68 5.92 86.56 86.56 0 0 0 61.92-24.32 96 96 0 0 0 16-105.76 12.8 12.8 0 0 0-9.44-7.84h-2.56a12.48 12.48 0 0 0-9.12 3.84l-48 48a12.96 12.96 0 0 1-18.24 0L603.52 272a12.96 12.96 0 0 1 0-18.4l48-48a13.12 13.12 0 0 0-4.32-21.28 119.84 119.84 0 0 0-44.32-8.32z" fill="#0070FF" p-id="1631"></path><path d="M960 688H64v48h896v-48z" fill="" p-id="1632"></path><path d="M168 800h352a24 24 0 0 1 0 48h-352a24 24 0 0 1 0-48zM664 800h192a24 24 0 0 1 0 48h-192a24 24 0 0 1 0-48z" fill="" p-id="1633"></path></svg>